HIERARCHY
ROOT Hips
{
	OFFSET 0.000000 0.000000 0.000000 
	CHANNELS 6 Xposition Yposition Zposition Zrotation Yrotation Xrotation
	JOINT LeftUpLeg
	{
		OFFSET 1.363060 -1.794630 0.839290 
		CHANNELS 3 Zrotation Yrotation Xrotation
		JOINT LeftLeg
		{
			OFFSET 2.448110 -6.726130 0.000000 
			CHANNELS 3 Zrotation Yrotation Xrotation
			JOINT LeftFoot
			{
				OFFSET 2.562200 -7.039590 0.000000 
				CHANNELS 3 Zrotation Yrotation Xrotation
				JOINT LeftToeBase
				{
					OFFSET 0.157640 -0.433110 2.322550 
					CHANNELS 3 Zrotation Yrotation Xrotation
					End Site
					{
						OFFSET 0.000000 0.000000 0.000000 
					}
				}
			}
		}
	}
	JOINT RightUpLeg
	{
		OFFSET -1.305520 -1.794630 0.839290 
		CHANNELS 3 Zrotation Yrotation Xrotation
		JOINT RightLeg
		{
			OFFSET -2.542530 -6.985550 0.000000 
			CHANNELS 3 Zrotation Yrotation Xrotation
			JOINT RightFoot
			{
				OFFSET -2.568260 -7.056230 0.000000 
				CHANNELS 3 Zrotation Yrotation Xrotation
				JOINT RightToeBase
				{
					OFFSET -0.164730 -0.452590 2.363150 
					CHANNELS 3 Zrotation Yrotation Xrotation
					End Site
					{
						OFFSET 0.000000 0.000000 0.000000 
					}
				}
			}
		}
	}
	JOINT Spine
	{
		OFFSET 0.028270 2.035590 -0.193380 
		CHANNELS 3 Zrotation Yrotation Xrotation
		JOINT Spine1
		{
			OFFSET 0.056720 2.048850 -0.042750 
			CHANNELS 3 Zrotation Yrotation Xrotation
			JOINT Neck1
			{
				OFFSET -0.054170 1.746240 0.172020 
				CHANNELS 3 Zrotation Yrotation Xrotation
				JOINT Head
				{
					OFFSET 0.104070 1.761360 -0.123970 
					CHANNELS 3 Zrotation Yrotation Xrotation
					End Site
					{
						OFFSET 0.000000 0.000000 0.000000 
					}
				}
			}
			JOINT LeftArm
			{
				OFFSET 3.362410 1.200890 -0.311210 
				CHANNELS 3 Zrotation Yrotation Xrotation
				JOINT LeftForeArm
				{
					OFFSET 4.983000 -0.000000 -0.000000 
					CHANNELS 3 Zrotation Yrotation Xrotation
					JOINT LeftHand
					{
						OFFSET 3.483560 -0.000000 -0.000000 
						CHANNELS 3 Zrotation Yrotation Xrotation
						JOINT LeftHandIndex1
						{
							OFFSET 0.715260 -0.000000 -0.000000 
							CHANNELS 3 Zrotation Yrotation Xrotation
							End Site
							{
								OFFSET 0.000000 0.000000 0.000000 
							}
						}
					}
				}
			}
			JOINT RightArm
			{
				OFFSET -3.136600 1.374050 -0.404650 
				CHANNELS 3 Zrotation Yrotation Xrotation
				JOINT RightForeArm
				{
					OFFSET -5.241900 -0.000000 -0.000000 
					CHANNELS 3 Zrotation Yrotation Xrotation
					JOINT RightHand
					{
						OFFSET -3.444170 -0.000000 -0.000000 
						CHANNELS 3 Zrotation Yrotation Xrotation
						JOINT RightHandIndex1
						{
							OFFSET -0.622530 -0.000000 -0.000000 
							CHANNELS 3 Zrotation Yrotation Xrotation
							End Site
							{
								OFFSET 0.000000 0.000000 0.000000 
							}
						}
					}
				}
			}
		}
	}
}
MOTION
Frames: 12
Frame Time: 0.041667
5.218509 17.656120 -32.241189 -4.928809 -4.867179 4.743265 -12.567405 -0.977325 -4.492260 0.323320 6.273737 16.867094 -0.015248 1.950352 -5.849325 0.046700 -1.394900 -3.836200 22.539089 5.983372 -5.898891 -1.074549 -8.064498 21.594550 1.054009 -7.037966 -6.325621 -0.013000 -0.736000 2.022700 3.452986 -1.377840 -3.559683 3.928776 -0.877511 -2.737159 9.540687 -19.086307 5.023847 4.920100 -9.601800 7.497700 -88.462980 5.559959 10.118955 14.159650 -27.627837 -3.397952 0.515633 1.662637 6.235621 -7.125000 0.000000 0.000000 83.389607 4.751835 15.340374 -6.031196 19.922535 -1.496816 -1.102305 -0.407814 3.766153 7.125000 0.000000 0.000000 
5.220590 17.654138 -32.233063 -4.952548 -4.532283 4.581681 -12.515930 -1.100405 -4.298662 0.324714 6.269969 16.864741 0.004937 1.788095 -5.841004 0.044500 -1.361800 -3.745000 22.624408 5.771477 -5.654592 -1.062895 -8.031891 21.495961 1.095137 -7.211899 -6.434673 -0.014700 -0.782900 2.151500 3.484077 -1.593458 -3.551325 3.934568 -0.981926 -2.711766 8.847449 -18.850170 4.836132 4.591100 -9.504300 7.179200 -88.446103 5.646002 10.537197 14.542766 -28.090444 -3.527184 0.506807 1.689489 6.045877 -7.125000 0.000000 0.000000 83.112274 4.560181 16.152688 -6.361517 20.345186 -1.567126 -1.114814 -0.456600 2.756841 7.125000 0.000000 0.000000 
5.223067 17.654634 -32.229396 -5.006076 -4.509430 4.594287 -12.459624 -1.099781 -4.300258 0.325982 6.271084 16.869955 0.007940 1.762115 -5.828107 0.044900 -1.367000 -3.759200 22.687620 5.789105 -5.614380 -1.054664 -8.013402 21.435086 1.114844 -7.293348 -6.440699 -0.014200 -0.770500 2.117600 3.465884 -1.545612 -3.488281 3.853548 -0.961834 -2.545551 8.442754 -18.821717 5.240636 4.324100 -9.471100 7.384100 -88.327574 5.284410 11.099234 14.814892 -28.390061 -3.608003 0.507186 1.672565 5.910210 -7.125000 0.000000 0.000000 82.864308 4.725719 16.730507 -6.700969 20.770835 -1.641570 -1.105811 -0.523550 1.777230 7.125000 0.000000 0.000000 
5.225743 17.655228 -32.228901 -5.015194 -4.501994 4.618714 -12.455775 -1.110111 -4.321536 0.325338 6.270298 16.865869 0.009830 1.750127 -5.837936 0.044700 -1.363800 -3.750500 22.690121 5.791645 -5.600854 -1.046538 -7.991759 21.372688 1.115145 -7.292448 -6.415379 -0.013200 -0.741600 2.038000 3.477458 -1.608344 -3.508928 3.926842 -0.993393 -2.611122 9.085357 -18.791823 5.188671 4.690500 -9.455200 7.460200 -88.331379 5.280592 11.423209 15.144209 -28.752603 -3.711479 0.514827 1.653922 5.803526 -7.125000 0.000000 0.000000 82.643541 4.752045 16.802434 -6.813944 20.898547 -1.666546 -1.100339 -0.531684 1.535511 7.125000 0.000000 0.000000 
5.227923 17.655427 -32.225928 -5.028471 -4.396496 4.608146 -12.435120 -1.150926 -4.303849 0.325442 6.269476 16.863953 0.018516 1.681100 -5.835396 0.044700 -1.364500 -3.752400 22.715457 5.742930 -5.551672 -1.040428 -7.975338 21.323697 1.127722 -7.345556 -6.451264 -0.012900 -0.732800 2.014000 3.482701 -1.679780 -3.497346 3.931274 -1.030703 -2.577240 9.145766 -18.737938 5.280144 4.722200 -9.424900 7.520400 -88.275695 5.219823 11.880200 15.513691 -29.164511 -3.831817 0.515120 1.646734 5.625953 -7.125000 0.000000 0.000000 82.485110 4.974812 16.552228 -6.804580 20.860212 -1.668990 -1.104056 -0.536569 1.527308 7.125000 0.000000 0.000000 
5.229905 17.655823 -32.223153 -5.028811 -4.287853 4.608151 -12.426762 -1.191214 -4.296782 0.324517 6.265687 16.852981 0.027968 1.604078 -5.825847 0.044900 -1.367200 -3.759800 22.725137 5.697701 -5.528061 -1.037415 -7.966520 21.298142 1.138343 -7.391466 -6.499544 -0.012400 -0.717900 1.972800 3.485806 -1.753600 -3.487158 3.933659 -1.069483 -2.538099 9.214529 -18.705694 5.398697 4.753500 -9.404300 7.598600 -88.202375 5.176231 12.364134 15.904300 -29.596968 -3.961705 0.513451 1.642160 5.417125 -7.125000 0.000000 0.000000 82.367781 5.290118 15.999295 -6.682901 20.670318 -1.648068 -1.110634 -0.526355 1.821976 7.125000 0.000000 0.000000 
5.232680 17.656318 -32.222162 -5.023537 -4.293075 4.626648 -12.440806 -1.186364 -4.311000 0.323425 6.263315 16.844900 0.029493 1.592453 -5.826917 0.045000 -1.368600 -3.763700 22.709070 5.706305 -5.531551 -1.034998 -7.960059 21.280053 1.134785 -7.377325 -6.501569 -0.011700 -0.699000 1.920800 3.484744 -1.779439 -3.482774 3.931620 -1.084075 -2.514976 9.238362 -18.676944 5.527483 4.760600 -9.387000 7.667900 -88.116787 5.156871 12.861219 16.305230 -30.038543 -4.098086 0.508730 1.642475 5.180090 -7.125000 0.000000 0.000000 82.263695 5.627111 15.331060 -6.521257 20.423007 -1.618877 -1.118712 -0.509308 2.240623 7.125000 0.000000 0.000000 
5.236247 17.656913 -32.222459 -5.014060 -4.406718 4.661848 -12.474861 -1.141113 -4.346102 0.323077 6.264825 16.847002 0.023378 1.645030 -5.841638 0.044900 -1.366900 -3.759000 22.670110 5.768758 -5.566462 -1.034938 -7.960671 21.283247 1.118965 -7.310750 -6.467464 -0.011000 -0.677000 1.860400 3.479099 -1.753709 -3.483363 3.926736 -1.072202 -2.507150 9.195555 -18.643310 5.684106 4.734000 -9.369100 7.736200 -88.020194 5.147417 13.368602 16.701926 -30.472458 -4.235352 0.502518 1.644654 4.917759 -7.125000 0.000000 0.000000 82.152308 5.935079 14.702937 -6.390041 20.212567 -1.595820 -1.125182 -0.495176 2.610229 7.125000 0.000000 0.000000 
5.240707 17.657607 -32.224639 -5.009421 -4.645390 4.716388 -12.521406 -1.049366 -4.407512 0.323994 6.271424 16.863282 0.008080 1.772592 -5.872645 0.044600 -1.363200 -3.748800 22.615766 5.894967 -5.635335 -1.036876 -7.967482 21.304831 1.089593 -7.186769 -6.385946 -0.010000 -0.647100 1.778300 3.470418 -1.672195 -3.494027 3.926761 -1.031897 -2.529302 9.141560 -18.596122 5.894834 4.709500 -9.347700 7.827700 -87.922405 5.144538 13.858866 17.079406 -30.881251 -4.368193 0.495070 1.649319 4.654738 -7.125000 0.000000 0.000000 82.012147 6.158966 14.273526 -6.338328 20.108455 -1.588403 -1.128359 -0.489443 2.787392 7.125000 0.000000 0.000000 
5.245761 17.657904 -32.228009 -5.010611 -4.969141 4.782708 -12.571992 -0.904218 -4.497543 0.326691 6.284014 16.896780 -0.010253 1.926059 -5.914414 0.044100 -1.355600 -3.727800 22.553508 6.063769 -5.724561 -1.040096 -7.978427 21.338735 1.052038 -7.026595 -6.271466 -0.009200 -0.620700 1.705800 3.460070 -1.551016 -3.511509 3.930516 -0.970904 -2.576040 9.078356 -18.525673 6.098161 4.690300 -9.318500 7.905000 -87.827402 5.145604 14.322062 17.433171 -31.260991 -4.494401 0.490393 1.651717 4.405052 -7.125000 0.000000 0.000000 81.836322 6.278438 14.134103 -6.393893 20.151619 -1.602295 -1.127266 -0.496679 2.664440 7.125000 0.000000 0.000000 
5.250815 17.658300 -32.231576 -5.021328 -5.295331 4.849525 -12.612937 -0.767481 -4.589709 0.330512 6.300038 16.940373 -0.029791 2.089726 -5.964307 0.043600 -1.347900 -3.706700 22.501153 6.235724 -5.814646 -1.043556 -7.989893 21.374214 1.013656 -6.863520 -6.157780 -0.008600 -0.599200 1.646600 3.452189 -1.427701 -3.534273 3.939251 -0.908595 -2.638714 9.026054 -18.432775 6.315524 4.685700 -9.280900 7.985900 -87.737830 5.155666 14.752493 17.770358 -31.619315 -4.616271 0.487853 1.651749 4.174505 -7.125000 0.000000 0.000000 81.657793 6.369780 14.026508 -6.465497 20.216870 -1.619559 -1.125728 -0.505300 2.500818 7.125000 0.000000 0.000000 
5.255572 17.658201 -32.234450 -5.038401 -5.553495 4.903131 -12.636303 -0.636351 -4.678678 0.335233 6.316595 16.986565 -0.041842 2.191490 -6.004936 0.043200 -1.340800 -3.686900 22.466014 6.368159 -5.889180 -1.046588 -7.999911 21.405301 0.981795 -6.728051 -6.068984 -0.008100 -0.582800 1.601400 3.446250 -1.334225 -3.553742 3.944959 -0.861613 -2.691653 8.958820 -18.323893 6.558927 4.675200 -9.235900 8.078400 -87.644527 5.153944 15.153880 18.095336 -31.961279 -4.735735 0.486777 1.651111 3.962663 -7.125000 0.000000 0.000000 81.484669 6.468033 13.923582 -6.536106 20.281667 -1.636529 -1.123730 -0.513112 2.320391 7.125000 0.000000 0.000000 
